  <svg
    xmlns="http://www.w3.org/2000/svg"
    viewBox="0 0 1000 1000"
    xmlSpace="preserve"
   
  >
    <path d="M403.28 10.97c-38.48 2.51-102.68 12.76-107.32 17.4-2.51 2.32-2.9 19.14-3.09 127.82 0 148.51-3.67 214.06-14.31 270.14-7.74 40.03-7.16 39.06-53.96 85.08-91.85 90.5-146.38 161.85-170.94 224.31-12.96 33.26-14.5 64.97-4.25 87.21 10.06 21.27 41 46.41 66.71 53.95 5.99 1.74 17.6 3.09 26.49 3.09 26.3 0 48.73-7.54 83.54-28.23 52.4-31.13 113.7-83.92 210.97-181.77 29.59-29.78 52.79-51.44 61.88-57.62 31.13-21.46 61.68-58.4 69.61-83.73 6.77-22.24 4.83-38.09-10.25-84.89-5.99-18.18-9.67-33.65-11.22-47.38-3.67-30.36-2.9-173.07 1.16-281.93 3.48-92.43 3.48-93.4-.19-97.07-3.29-3.48-8.12-4.06-40.42-5.8-34.22-1.74-82.18-2.13-104.41-.58zm105.38 25.14 17.98 1.16-1.16 30.94c-.58 16.82-1.55 31.33-2.13 31.71-.58.58-11.22-.19-23.78-1.55-33.07-3.87-121.63-3.48-155.08.77-14.31 1.93-26.1 3.09-26.3 2.9-1.35-1.74-2.32-53.95-.97-54.72 2.32-1.35 49.31-8.51 69.23-10.44 21.08-1.93 98.23-2.51 122.21-.77zm-24.17 85.66c10.64.97 23.4 2.32 28.23 2.9l8.89 1.16-.19 131.88c-.19 149.67 0 154.12 13.54 197.04 12.96 41.96 14.12 53.56 7.15 72.13-6.57 17.6-34.22 48.54-57.62 64.59-6.38 4.45-40.8 36.93-76.38 72.32-88.76 88.37-132.07 126.27-180.41 158.18l-22.82 15.08-13.92-11.22c-16.63-13.54-58.98-41.96-92.82-62.07-14.7-8.7-24.36-15.66-24.56-17.6 0-5.8 18.95-41.57 33.84-63.62 33.64-50.08 88.76-112.34 143.09-162.43 28.43-26.1 33.26-32.68 40.61-53.95 16.44-48.54 23.78-120.47 25.53-250.03l1.16-88.18 5.03-.97c4.45-.97 29.78-3.87 50.47-5.8 15.27-1.54 93.2-1.15 111.18.59zM118.05 805.14c40.61 25.91 62.46 41.96 60.33 44.09-3.29 3.29-22.82 7.35-35.58 7.35-16.24 0-28.23-4.25-44.86-16.24-23.2-16.44-32.1-31.71-32.1-54.72v-12.57l9.28 5.41c5.03 2.89 24.37 14.88 42.93 26.68z" />
    <path d="M787.11 121.19c-43.7 3.09-102.1 12.76-106.93 17.79-3.48 3.29-3.67 6.77-3.1 47.76 2.71 171.71-1.93 287.73-13.73 349.81-7.74 40.03-7.16 39.06-54.92 86.05-90.11 88.76-142.32 156.63-168.42 219.47-14.31 34.42-16.44 68.26-5.8 90.88 9.67 20.3 37.32 43.51 62.65 52.4 9.67 3.48 17.02 4.64 29.97 4.64 27.46 0 48.92-7.15 83.92-27.85 52.98-31.52 114.47-84.7 212.13-182.93 28.62-28.81 52.02-50.66 60.72-56.85 31.13-21.46 61.88-58.4 69.81-83.54 6.96-22.63 5.22-36.35-10.44-85.08-5.61-17.6-9.47-34.23-11.02-47.18-3.67-30.75-3.09-170.94 1.16-280.97 3.67-93.78 3.67-94.37-.19-98.04-3.29-3.48-7.93-4.06-37.51-5.8-31.53-1.72-88.19-2.11-108.3-.56zm108.1 25.14 16.24 1.16-1.16 30.75c-.58 17.02-1.55 31.33-2.13 31.91-.58.58-10.05 0-20.88-1.16-35.19-4.25-101.13-4.83-137.68-1.35-17.79 1.74-35.77 3.67-39.64 4.25l-7.35 1.16-1.16-26.69c-.58-14.89-.58-27.46.19-28.23 1.93-1.93 34.04-7.15 61.3-10.25 24.95-2.71 105.58-3.68 132.27-1.55zm-4.64 87.4c7.54 1.16 14.5 2.51 15.47 2.9 1.35.39 1.35 15.66.39 44.86-1.93 57.82-.39 219.86 2.32 239 1.16 8.12 6.57 29.59 11.99 47.38 10.64 35.39 12.76 53.56 7.54 66.32-7.93 19.92-33.84 49.89-57.04 66.13-7.74 5.42-41 36.55-78.32 73.67-89.54 88.97-131.5 125.71-180.23 158l-23.4 15.47-6.96-6.38c-14.89-13.54-80.44-57.04-115.64-76.96-4.64-2.52-8.31-6-8.31-7.74 0-5.42 18.56-41 32.29-61.69 32.69-49.11 89.73-113.89 146.39-166.29 27.65-25.53 31.52-30.75 38.87-52.21 16.44-48.34 23.78-120.47 25.53-249.83l1.16-88.56 6-.97c3.29-.58 16.82-2.32 30.17-3.87 28.21-3.1 129.73-2.71 151.78.77zM473.08 896.41c51.43 31.52 92.82 60.33 90.3 62.85-3.48 3.29-23.59 7.54-35.77 7.54-16.24 0-28.23-4.25-44.86-16.24-23.01-16.44-32.1-31.91-32.1-54.53 0-6.77.39-12.38.77-12.38.39 0 10.25 5.8 21.66 12.76z" />
  </svg>