  <svg xmlns="http://www.w3.org/2000/svg" viewBox="0 0 678 501" >
    <path d="M262.25 40.219c-2.91-.056-6.097.25-8.344.875-2.065.574-4.666 2.29-6.844 4.469-2.177 2.179-3.949 4.818-4.593 6.969-.612 2.042-.868 2.81-.5 5.062s1.44 5.944 3.593 13.25c1.055 3.58 2.68 9.186 3.594 12.5.889 3.221 2.53 7.507 3.5 9.188 1.169 2.025 2.436 5.366 2.938 7.78 8.76 42.13 10.73 53.436 12.03 69.22.607 7.358 1.496 15.066 2.407 21.219.456 3.076.919 5.783 1.344 7.844.424 2.06.88 3.565 1.062 3.906 1.427 2.666 1.394 6.096.625 8.687-.384 1.296-.937 2.413-1.844 3.125a2.59 2.59 0 0 1-1.656.563c-.622-.015-1.203-.26-1.719-.688-.625-.519-1.104-1.297-1.625-2.25a21.851 21.851 0 0 1-1.406-3.156c-.687-1.953-3.365-8.013-5.844-13.219a6071.205 6071.205 0 0 1-6.406-13.5c-2.65-5.615-6.066-10.963-8.844-14-1.48-1.618-3.657-4.667-5.53-7.5a73.506 73.506 0 0 1-2.407-3.875c-.313-.547-.591-1.03-.781-1.437-.181-.387-.329-.604-.344-1.125-.031-.089-.109-.227-.188-.407a31.92 31.92 0 0 0-.687-1.437 113.083 113.083 0 0 0-2.313-4.313c-1.84-3.274-4.144-8.157-5.218-11-2.012-5.322-6.891-15.616-11.625-24.906-2.367-4.645-4.708-9.053-6.625-12.469-.96-1.707-1.8-3.166-2.5-4.28-.7-1.116-1.304-1.926-1.531-2.157-4.777-4.853-11.314-4.5-16.625-1.094-5.312 3.407-9.165 9.895-8.157 17.281 1.06 7.766 5.666 19.84 14.281 37.062 8.176 16.344 16.963 36.635 20.062 46.406.94 2.965 2.657 7.282 3.72 9.375 1.178 2.322 3.262 7.6 4.75 11.938 1.44 4.206 4.864 12.1 7.53 17.375 3.132 6.197 4.965 10.456 5.813 14.062.848 3.607.656 6.55-.313 9.813-.821 2.766-2.083 5.364-3.437 7.312-.677.974-1.366 1.768-2.094 2.375-.728.607-1.507 1.063-2.406 1.063-.501 0-.663-.148-.938-.282s-.577-.31-.937-.53c-.72-.441-1.62-1.055-2.688-1.813a165.821 165.821 0 0 1-7.718-5.875c-5.631-4.54-13.503-10.373-17.344-12.906-11.955-7.886-18.352-13.365-25.781-21.906-4.206-4.836-9.312-9.866-14.094-14.031-4.783-4.166-9.292-7.472-12.125-8.844-8.514-4.122-18.432-.926-22.031 7-2.055 4.523-2.267 8.546-.032 13.906 2.236 5.36 7.024 11.99 14.97 21.219 1.75 2.033 8.038 8.12 15.25 14.812 7.211 6.692 15.427 14.083 21.187 19 3.869 3.302 10.045 8.821 13.781 12.28 3.682 3.41 8.607 7.375 10.688 8.688 2.405 1.518 4.975 4.019 6.063 6.032.82 1.517 3.4 5.082 5.562 7.656 2.25 2.679 5.736 7.457 7.844 10.719 2.061 3.19 5.13 7.624 6.75 9.781 1.76 2.343 4.68 7.469 6.656 11.656 7.516 15.929 12.06 24.348 14.812 27.656 1.734 2.083 5.058 6.613 7.47 10.219 5.838 8.73 13.614 17.004 32.311 34.219 2.552 2.35 4.7 4.544 6.25 6.312.776.885 1.395 1.678 1.844 2.344.449.667.812 1.105.812 1.906 0 .77.444 2.578.938 3.5.43.802.56 1.77.594 3.032.034 1.26-.06 2.818-.282 4.625-.443 3.612-1.376 8.3-2.78 13.875a85.57 85.57 0 0 0-2.032 11.344c-.375 3.503-.371 6.488-.063 7.718.186.741.44 1.195.625 1.375.186.18.25.21.532.157.24-.047.176.034.437-.438s.615-1.511 1.063-3.375c.896-3.727 2.208-10.736 4.53-23.719.9-5.02 1.377-11.638 1.126-15-.267-3.582-.73-5.712-2.344-8.187s-4.459-5.308-9.531-9.875c-13.23-11.913-25.748-25.203-31.688-33.688a2940.603 2940.603 0 0 0-8.781-12.47c-3.483-4.906-5.871-9.4-11.22-21.093-1.935-4.233-4.436-8.923-6.687-12.688-1.125-1.883-2.209-3.517-3.094-4.75s-1.71-2.106-1.843-2.188c-.467-.288-.58-.52-.875-.906s-.65-.887-1.032-1.469a72.485 72.485 0 0 1-2.562-4.25c-1.726-3.082-4.451-7.068-5.844-8.562-1.603-1.72-4.162-4.92-5.75-7.282-1.423-2.116-4.903-5.702-7.531-7.656-2.813-2.09-7.532-6.115-10.594-9-2.995-2.82-8.86-7.983-12.97-11.438-9.193-7.73-27.942-24.922-33.78-30.969-3.495-3.62-7.547-8.62-10.906-13.28-3.36-4.661-6.012-8.818-6.75-11.282-2.282-7.615 3.324-15.29 11.219-15.28 1.74.001 3.757.746 6.094 2s4.988 3.036 7.812 5.25c5.65 4.426 12 10.552 17.906 17.437 6.611 7.704 12.418 12.568 25.75 21.562 4.786 3.23 11.387 8.113 14.781 10.938 5.071 4.22 8.291 6.71 10.75 8.094s4.119 1.719 6.438 1.719c2.624 0 4.366-.546 5.906-1.969 1.54-1.422 2.896-3.848 4.344-7.719 1.815-4.85 2.365-8.932 1.437-14-.927-5.067-3.398-11.155-7.719-19.75-2.399-4.773-4.884-10.385-5.625-12.78-.644-2.084-2.909-7.977-4.968-12.907-2.075-4.966-4.04-9.997-4.5-11.594-.74-2.57-4.435-11.5-8.813-21.438-4.378-9.936-9.48-21.03-13.156-28.406-6.47-12.979-10.029-21.893-10.875-28.469-.423-3.287-.147-6.026.875-8.312s2.759-4.058 5.094-5.5c2.165-1.337 4.138-2.204 6.156-2.125 2.019.079 3.908 1.154 5.781 3.187 3.748 4.068 7.834 12.137 14.375 26.375 12.706 27.66 18.364 38.37 24.531 46.531 5.282 6.99 10.303 16.401 20.062 37.47 1.2 2.588 2.48 5.08 3.563 7 .541.959 1.037 1.775 1.437 2.374.4.6.78.992.75.969 1.16.876 2.395 1.177 3.75.938 1.356-.24 2.841-1.06 4.282-2.5 1.196-1.197 1.83-1.99 2.187-2.97.358-.979.469-2.247.469-4.374 0-2.663-.642-7.775-1.406-11.094-2.232-9.686-4.62-25.99-4.625-32.125-.005-4.777-.707-9.477-5.47-36.625-1.579-9.006-3.437-18.037-5.218-25.375-1.781-7.338-3.541-13.093-4.594-15.188-1.366-2.719-3.147-7.813-4.094-11.625-.917-3.696-2.326-8.639-3.093-10.812-.86-2.436-1.5-6.294-1.5-8.938 0-1.986.145-3.435.78-4.812s1.676-2.581 3.376-4.281c1.748-1.749 2.95-2.813 4.375-3.438 1.424-.625 2.928-.719 5.156-.719 2.082 0 3.528.122 4.813.594 1.285.472 2.292 1.282 3.406 2.469 3.71 3.954 7.616 12.013 8.937 18.28.567 2.688 1.982 8.742 3.125 13.407 1.15 4.692 2.66 11.455 3.375 15.062.68 3.433 2.685 9.41 4.375 13a99.452 99.452 0 0 1 2.281 5.187c.295.737.515 1.38.688 1.907.173.525.312.826.312 1.343 0-.039.028.283.125.688s.256.96.438 1.562c.364 1.204.873 2.701 1.437 4.188 3.53 9.294 5.05 15.267 6.063 24.188 1.828 16.098 2.605 21.459 4.312 29.406 1.117 5.198 2.496 10.625 3.75 14.906a91.224 91.224 0 0 0 1.75 5.406c.512 1.405 1.04 2.427 1.125 2.531-.05-.062.09.096.438.219s.89.243 1.531.344c1.284.202 3.06.312 5.188.312 2.927 0 4.689-.09 5.843-.375 1.155-.284 1.74-.708 2.657-1.625 1.046-1.046 1.416-1.418 1.78-4.094.365-2.675.551-7.456.845-16.469.17-5.224.441-10.444.75-14.625.308-4.18.608-7.194.968-8.562.082-.31.293-2.131.438-4.781.145-2.65.281-6.264.406-10.688.25-8.848.443-20.93.563-35.062.214-25.317.253-37.341.968-43.97.715-6.627 2.34-8.051 5.157-11.155 1.53-1.686 3.825-2.529 6.437-2.563 2.612-.034 5.593.7 8.813 2.125 4.742 2.098 7.864 5.38 9.75 12.188 1.885 6.808 2.742 17.198 3.437 34.125.27 6.595.58 13.012.875 18.062.295 5.05.608 8.834.75 9.719.118.737.163 2.252.25 4.688.087 2.435.171 5.676.25 9.53.158 7.71.302 17.822.375 28.439.15 21.75.373 33.814 1.313 42.03.939 8.218 2.557 12.555 5.625 19.126 5.212 11.168 13.02 21.157 21.53 27.562 9.02 6.788 14.05 8.972 23.689 10.312 6.498.903 10.752 1.273 13.938 1 3.186-.273 5.34-1.135 7.906-2.781 2.119-1.36 3.237-2.228 4.594-4.25 1.356-2.023 2.906-5.23 5.593-11.062 7.118-15.45 10.662-21.667 15.531-27.031 1.939-2.136 5.097-6.185 6.907-8.875 6.386-9.494 15.31-17.821 24.75-23.062 4.988-2.77 11.826-2.416 17.28.78 3.56 2.087 5.836 4.31 6.594 6.938s-.13 5.42-2.312 8.313c-3.758 4.984-16.055 26.999-17.875 31.938-2.13 5.779-6.84 13.852-10.406 17.812-.809.897-2.2 2.995-3.719 5.625s-3.201 5.836-4.844 9.125c-3.284 6.577-6.342 13.57-7.156 16.75-.955 3.728-4.435 12.227-7.844 19.25-3.384 6.97-6.974 14.49-7.906 16.594-.982 2.216-3.081 6.425-4.687 9.469-1.588 3.009-4.553 8.853-6.594 12.969-6.565 13.235-11.92 21.367-18.188 27.5-3.207 3.137-7.145 6.446-10.844 9.187-3.699 2.741-7.095 4.903-9.406 5.781-1.047.398-2.865 1.903-3.563 2.97-.705 1.075-1.86 4.01-2.875 7.437s-1.946 7.393-2.5 10.844c-.41 2.555-1.674 8.396-2.812 13.094-1.79 7.383-4.257 33.824-4.22 45.875.008 2.312.554 4.222 1.095 5.062.27.42.494.473.437.469-.057-.005 0 .076.281-.375-.068.11.003-.055.063-.281.06-.227.144-.54.219-.938.15-.795.325-1.888.5-3.187.348-2.6.714-6.041 1.062-9.72.697-7.355 1.281-15.695 1.313-20.28.028-4.152 1.068-10.298 2.593-15.562.68-2.349 1.303-4.827 1.75-6.906.448-2.08.72-3.834.72-4.438 0-1.93.673-4.873 1.562-7 .779-1.865 1.437-4.568 1.437-5.437 0-1.812.96-3.703 2.25-5.375s2.905-3.132 4.688-3.688c2.89-.901 8.858-5.1 14.469-10.062 5.61-4.963 11.062-10.749 13.438-14.656 2.804-4.614 7.135-12.445 10.75-19.28a346.095 346.095 0 0 0 4.593-8.97 76.928 76.928 0 0 0 1.375-2.937c.16-.366.301-.67.375-.875s.063-.414.063-.156c0-.656.245-1.205.562-1.75a5.697 5.697 0 0 1 1.25-1.5c.168-.14.68-.799 1.125-1.625s.889-1.842 1.188-2.782c.367-1.153 1.376-3.594 2.812-6.812s3.262-7.14 5.125-11c1.85-3.832 3.616-7.747 4.938-10.97 1.321-3.221 2.198-5.892 2.312-6.655.221-1.468 1.069-3.714 2.282-6.563 1.212-2.849 2.794-6.218 4.468-9.562s3.44-6.654 5.032-9.407 2.96-4.921 4.03-6.093c4.145-4.537 7.375-10.064 10.345-17.875 1.534-4.036 3.766-8.764 5.156-10.812 1.185-1.747 3.913-6.525 5.969-10.438 2.11-4.016 5.441-9.122 7.594-11.594 2.46-2.826 3.658-4.455 4.03-5.907.374-1.451.05-3.01-.905-5.968-1.386-4.29-2.124-5.15-6.75-8.22-2.647-1.755-3.946-2.588-5.594-3-1.649-.41-3.83-.428-8.063-.374-3.535.045-5.843.186-7.53.5-1.69.314-2.757.775-4.032 1.594a212.883 212.883 0 0 1-6.344 3.906c-2.22 1.296-6.29 4.996-10.938 9.969-4.646 4.973-9.955 11.22-14.938 17.75-1.183 1.55-3.878 6.321-6.844 12.03-2.966 5.71-6.263 12.445-8.844 18.22-3.229 7.225-4.892 9.553-8.718 12.25l-4.5 3.156a1 1 0 0 1-.688.187l-9.406-1.093c-9.975-1.177-17.029-3.942-23.469-9.188-1.756-1.431-4.59-3.702-6.281-5-1.022-.784-2.384-2.227-3.969-4.062a138.21 138.21 0 0 1-5.031-6.22c-1.663-2.176-3.225-4.315-4.375-6.062a30.121 30.121 0 0 1-1.375-2.281c-.344-.641-.625-1.008-.625-1.75 0 .131-.033-.175-.156-.531s-.326-.837-.563-1.375a52.006 52.006 0 0 0-1.844-3.75c-1.543-2.838-3.13-7.278-3.625-10.22-2.05-12.197-2.953-34.496-2.375-57.187.372-14.616.164-26.984-.437-31.344-.593-4.293-1.427-18.153-1.938-31.094-.644-16.325-1.686-27.157-3.5-34.125-1.814-6.969-4.234-9.921-7.812-11.094-2.046-.67-4.513-1.72-5.781-2.5-.764-.47-3.64-1.361-5.844-1.688-6.197-.918-10.667 1.264-14.47 7.188l-3.093 4.844-.188 46.28c-.056 14.712-.192 26.716-.406 35.376-.107 4.33-.234 7.828-.375 10.406-.141 2.577-.258 4.13-.5 5.03-.29 1.083-.663 3.71-1 6.97-.337 3.26-.65 7.207-.906 11.188-.514 7.96-.762 16.145-.469 18.78.305 2.746-.11 5.077-1.312 6.75s-3.188 2.563-5.563 2.563c-2.049 0-3.856-.875-5.156-2.937-1.3-2.063-2.334-5.244-3.688-10.312-3.186-11.937-5.235-24.312-6.843-41.156-.69-7.232-3.609-18.644-6.563-25.72-.718-1.719-2.06-5.514-3.062-8.562-.97-2.948-2.65-6.683-3.5-7.906-1.181-1.7-2.032-4.252-2.032-6.25 0-1.466-.507-4.127-1.03-5.5-.679-1.779-1.985-6.96-3.063-11.938-1.073-4.951-2.371-10.992-2.906-13.406-.97-4.372-2.908-9.134-5.125-13.062-2.218-3.93-4.809-7.023-6.72-8.094-.932-.523-3.647-1.007-6.562-1.062z" />
    <path
    
      d="M258.41 39.844c-8.401.485-16.202 7.55-16.969 15.969-.018 5.441 2.952 10.355 3.916 15.691 2.23 8.877 5.076 17.596 8.928 25.872 2.746 9.662 3.983 19.833 6.352 29.659a428.774 428.774 0 0 1 7.679 53.653c.896 8.525 1.991 17.126 4.75 25.219.303 3.021.08 7.666-3.469 8.469-3.652-.67-3.652-5.37-5.348-8.063-5.13-11.42-10.037-23.015-16.558-33.718-5.067-6.97-11.112-13.471-14.167-21.632-5.815-10.028-9.38-21.09-14.701-31.401-4.544-9-8.929-18.254-14.476-26.624-4.945-5.479-14.222-4.738-19.27.28-6.37 5.22-8.083 14.658-4.967 22.169 5.938 20.19 17.352 38.082 25.23 57.43 5.431 12.582 9.537 25.667 15.1 38.184 3.248 9.116 7.112 17.93 11.53 26.5 3.373 6.646 5.082 14.826 1.157 21.625-1.275 2.615-3.159 6.716-6.625 6.375-5.024-2.636-9.149-6.784-13.78-10.094-9.668-7.812-20.549-14.175-30.026-22.056-12.67-11.458-22.893-26.771-38.662-34.475-9.2-3.982-21.14 2.146-22.389 12.244-1.403 9.404 5.464 17.215 10.644 24.266 13.907 17.097 31.43 30.724 47.603 45.568 7.056 6.455 14.407 12.805 21.986 18.453 3.798 3.587 6 8.55 9.603 12.485 8.789 11.937 17.583 24.019 23.579 37.666 4.31 9.43 9.199 18.673 15.787 26.692 9.692 15.093 22.982 27.327 36.089 39.262 2.751 3.161 6.658 5.85 8.196 9.728 1.271 3.743 2.313 7.622 1.337 11.63-1.723 12.455-7.466 24.989-3.81 37.66 4.335-11.678 5.683-24.186 7.677-36.434 1.075-7.529 1.229-16.625-5.208-21.815-12.521-12.317-26.064-23.74-36.555-37.864-7.887-10.524-15.446-21.425-20.591-33.602-4.011-8.477-8.172-17.286-14.551-24.065-3.445-6.839-8.272-12.836-13.084-18.656-5.77-8.517-15.225-13.476-22.22-20.865-16.338-14.552-33.493-28.32-48.068-44.613-5.103-6.457-11.009-12.954-13.524-20.991-1.327-7.431 6.596-15.46 14.062-12.406 9.38 3.764 16.542 11.306 23.561 18.27 7.633 8.418 15.093 16.91 24.848 22.956 10.249 7.056 20.248 14.41 29.779 22.274 4.373 3.035 11.618 4.585 15.406-.094 3.817-4.734 5.558-11.174 5.625-17.25-.677-13.162-9.458-23.81-13.485-35.964-5.738-14.624-11.107-29.38-17.303-43.82-7.314-17.57-16.791-34.207-23.529-52.033-2.197-6.418-3.63-15.195 2.536-19.933 3.19-2.881 8.677-4.26 11.97-.938 5.191 5.037 7.77 12.124 11.157 18.396 8.822 18.3 16.3 37.648 27.984 54.411 11.01 14.726 16.844 32.487 26.014 48.224 2.528 3.357 7.94 1.302 9.906-1.718 3.375-3.976 1.595-9.692 1.283-14.426-2.38-11.98-4.908-23.977-5.345-36.231-.72-12.957-3.89-25.602-5.813-38.406-2.718-15.164-5.87-30.341-11.93-44.54-2.156-7.356-4.445-14.75-6.042-22.175-.732-4.304.345-8.92 3.816-11.661 3.336-4.218 9.479-5.103 14.25-3.282 6.126 3.625 8.72 10.913 11 17.344 2.848 10.914 4.071 22.046 10.028 32.513 1.421 6.87 2.625 13.392 4.86 19.88 1.958 8.043 4.033 15.678 5.819 23.691 2.562 14.661 4.128 29.697 8.344 44.058 1.477 5.29 1.937 8.93 5.82 14.035 4.07 1.458 7.963 2.71 12.223 2.51 4.376-2.046 5.806-4.979 5.364-8.807.748-13.874.874-27.81 2.715-41.596 1.62-30.287.302-60.66 2.027-90.935-.191-6.356 3.933-13.509 13.864-14.369 7.06 1.549 12.697 2.3 15.405 13.91 3.278 11.131 2.602 23.521 3.415 35.073.848 20.4 2.748 40.755 2.45 61.192.272 18.457-.207 37.001 1.76 55.375 3.25 17.2 13.362 32.945 26.844 43.938 7.8 6.373 17.39 10.283 27.465 10.873 7.543 1.203 16.552 1.163 21.94-4.967 4.484-5.25 6.402-12.349 9.595-18.375 4.204-9.2 9.4-18.046 16.28-25.438 6.324-8.923 12.99-17.69 22.039-23.897 5.149-4.163 11.754-7.101 18.337-5.134 4.904 1.43 10.535 4.692 11.344 10.188-.405 5.725-5.55 9.634-7.746 14.734-6.469 10.541-11.718 21.748-17.005 32.859-4.395 7.131-10.259 13.418-13.468 21.134-4.861 8.791-7.968 18.345-11.486 27.724-8.583 19.737-18.314 39.103-28.357 58.201-5.547 10.373-12.996 19.644-22.392 26.409-4.103 3.383-9.103 5.991-13.61 8.813-4.11 4.207-4.575 10.655-6.118 16.113-2.775 12.643-5.497 25.32-6.413 38.262-.763 8.836-1.607 17.786-1.187 26.625.943 2.604 4.036-.174 3.53-2.125.872-9.704 1.637-19.552 2.135-29.337.09-10.433 4.67-19.938 5.49-30.256 1.379-3.88 2.276-7.922 3.25-11.812 1.839-4.371 6.387-5.783 10.14-7.99 11.763-7.66 22.089-17.89 28.469-30.537 4.338-8.001 8.77-16.106 12.61-24.285.382-3.063 3.782-4.611 4.123-7.808 5.161-13.318 12.816-25.636 16.482-39.526 4.71-10.973 9.754-22.164 17.682-31.232 6.217-8.91 8.495-19.993 14.658-28.84 4.17-7.838 8.776-15.608 14.493-22.25 2.15-4.085-.19-8.922-2.219-12.531-4.083-4.213-9.625-7.76-15.78-7.421-5.991-.001-12.465-.146-17.376 3.796-11.327 6.853-19.739 17.778-27.99 28.054-7.797 10.428-12.475 22.786-18.385 34.32-2.215 6.052-6.895 10.552-12.53 13.407-11.717-.981-24.48-2.567-33.457-10.756-7.913-5.497-13.847-13.414-19.294-21.431-2.078-4.21-3.656-8.628-5.844-12.812-2.71-7.538-2.763-15.846-3.573-23.81-2.014-27.273 1.405-54.702-1.934-81.906-1.526-19.201-.043-38.04-5.25-56.717-1.385-4.277-4.933-9.926-9.468-10.811-6.056-3.273-12.926-3.514-20.368.368-3.172 2.8-5.77 6.687-7.224 10.625-.397 31.784.448 63.62-1.338 95.363l-2.46 41.14c-.318 4.705-6.44 7.51-9.938 4.375-4.12-4.452-4.604-11.106-6.301-16.706-3.538-14.532-7.223-28.832-9.093-44.24-1.325-11.268-4.332-21.79-8.637-32.21-.71-3.638-2.31-6.716-3.28-10.469-2.04-7.775-4.15-15.715-5.58-23.776-2.03-9.273-5.16-19.262-12.42-25.66-3.26-1.999-7.585-1.456-11.344-1.532zm33.344 73.625c.086-.145-.496.44 0 0zm-.156.125c-.474.486-.039-.149 0 0zm.125-.125c-.086-.036.035.086 0 0zm.031 0h-.031zm-.063.125c.21.26-.173.112 0 0zm235.59 83.031c.104 1.261.18 2.703-.812 3.656.5-.952.675-3.521.812-3.656zM472.906 209.5c-1.944 3.064-4.253 5.64-6.53 8.438 2.282-3.432 4.836-6.584 7.437-9.72l-.906 1.282z"
    />
  </svg>