  <svg
    xmlns="http://www.w3.org/2000/svg"
    viewBox="0 0 1000 1000"
    xmlSpace="preserve"
    
  >
    <path d="M683.8 10c-9.5 0-18.9.6-28.2 1.4-3.4.3-6.8.8-10.2 1.3-5.7.7-11.4 1.6-17.1 2.6-4.2.8-8.3 1.6-12.3 2.5-4.7 1.1-9.4 2.3-14 3.6-4.4 1.2-8.8 2.4-13.2 3.8-3.9 1.3-7.8 2.8-11.7 4.3-10.2 3.8-20.2 8.2-29.9 13-1.9.9-3.9 1.8-5.8 2.8-5.1 2.7-10 5.7-15 8.6-2.7 1.7-5.4 3.2-8.2 5-4.8 3.1-9.4 6.3-14 9.6-1.4 1-2.8 1.9-4.2 3C447 31.7 382.7 10 316.3 10 147.4 10 10 147.3 10 316.3 10 593.5 188.2 844.2 486.8 987c4.2 2 8.7 3.1 13.2 3.1s9-1 13.2-3.1C811.8 844.2 990 593.4 990 316.3 990 147.3 852.6 10 683.8 10zM500 925.3C231.3 792 71.3 565.2 71.3 316.3c0-135.1 109.9-245 245-245 49.4 0 97.3 15.3 137.9 43.1-47.6 54-76.6 124.5-76.6 201.9 0 16.9 13.7 30.6 30.6 30.6s30.6-13.7 30.6-30.6c0-72.9 32.2-138.3 82.9-183.2 4.7-4.2 9.6-8.2 14.6-11.9 1.1-.8 2.2-1.7 3.4-2.5 4.9-3.5 9.9-7 15-10.1 1.4-.9 2.8-1.8 4.2-2.6 4.9-3 10-5.7 15.1-8.3 1.8-.9 3.6-1.7 5.4-2.6 4.9-2.3 9.9-4.5 14.9-6.5 2.2-.9 4.5-1.7 6.8-2.5 4.8-1.7 9.5-3.3 14.4-4.7 3-.8 5.8-1.6 8.8-2.3 4.4-1.1 8.7-2.2 13.2-3.1 4.1-.7 8.2-1.3 12.2-1.9 3.5-.5 6.9-1.1 10.5-1.5 7.8-.7 15.7-1.2 23.6-1.2 135.1 0 245 109.9 245 245 0 248.8-160.1 475.6-428.8 608.9zm183.8-792.8c-16.9 0-30.6 13.7-30.6 30.6s13.7 30.6 30.6 30.6c67.6 0 122.5 54.9 122.5 122.5 0 16.9 13.7 30.6 30.6 30.6s30.6-13.7 30.6-30.6c0-101.3-82.4-183.7-183.7-183.7z" />
  </svg>